
<svg width="201px" height="201px" viewBox="-9.6 -9.6 43.20 43.20" fill="none" xmlns="http://www.w3.org/2000/svg" stroke="#000000" transform="rotate(0)matrix(1, 0, 0, 1, 0, 0)">
    <g stroke-width="0" transform="translate(0,0), scale(1)">
        <rect x="-9.6" y="-9.6" width="43.20" height="43.20" rx="0" fill="#fcfcfc" strokewidth="0"/>
    </g>
    <g stroke-linecap="round" stroke-linejoin="round" stroke="#CCCCCC" stroke-width="0.288"/>
    <g>
        <path opacity="0.5" d="M2 12C2 7.28595 2 4.92893 3.46447 3.46447C4.92893 2 7.28595 2 12 2C16.714 2 19.0711 2 20.5355 3.46447C22 4.92893 22 7.28595 22 12C22 16.714 22 19.0711 20.5355 20.5355C19.0711 22 16.714 22 12 22C7.28595 22 4.92893 22 3.46447 20.5355C2 19.0711 2 16.714 2 12Z" stroke="#2b2b2c" stroke-width="1.5"/> 
        <path d="M15 12L12 12M12 12L9 12M12 12L12 9M12 12L12 15" stroke="#2b2b2c" stroke-width="1.5" stroke-linecap="round"/>
    </g>
</svg>